<svg id="07ee0d2c-df88-473f-883c-8153707d43fa" data-name="WWUMünster_Logo_RGB" xmlns="http://www.w3.org/2000/svg" viewBox="0 0 850.3937 245.56334">
  <title>WWUMuenster_Logo_2017_rgb</title>
  <path d="M859.74021,243.75262h4.24a12.5059,12.5059,0,0,1,4.612.716,5.81517,5.81517,0,0,1,3.596,5.3c0,2.296-.644,4.18-1.876,5.252-1.396,1.22-3.38,1.784-6.656,1.784h-3.916Zm4.132-3.508h-8.576v34.94391h4.392v-15.792c1.824.048,2.628.508,4.076,2.24a80.092,80.092,0,0,1,9.388,13.552h5.52s-6.912-9.884-8.468-11.872a20.85915,20.85915,0,0,0-3.704-3.92h.536c5.848,0,9.76-3.816,9.76-9.576a9.02237,9.02237,0,0,0-3.644-7.336c-1.768-1.376-4.236-2.24-9.28-2.24m-24.34793,0H819.41632v34.94391h20.64394v-3.612h-16.196v-12.792h12.6v-3.612h-12.6v-11.468h15.068Zm-33.87591,0H781.30842v3.508h9.868v31.43592h4.232V243.75262h9.972Zm-60.81584,29.19192-1.928,3.264a22.42126,22.42126,0,0,0,11.796,3.152,14.796,14.796,0,0,0,8.26-2.136,9.94442,9.94442,0,0,0,5.092-8.408,9.43044,9.43044,0,0,0-2.412-6.164c-1.5-1.632-3.216-2.548-6.488-3.516l-4.24-1.276c-4.344-1.324-6.116-2.904-6.116-5.708,0-3.564,2.736-5.756,7.352-5.756,3.164,0,5.42.764,8.956,2.956l1.928-3.008a20.062,20.062,0,0,0-11.1-3.356c-7.136,0-11.9,4.068-11.9,10.032a7.91963,7.91963,0,0,0,2.3,5.708c1.448,1.428,3.216,2.14,6.544,3.108l3.7,1.072c4.456,1.272,6.6,3.412,6.6,6.52a5.87986,5.87986,0,0,1-2.628,4.996c-1.556,1.12-3.06,1.528-5.848,1.528a16.609,16.609,0,0,1-9.868-3.008m-80.16778-29.19192h-4.34v25.06793a11.38631,11.38631,0,0,0,1.072,5.452c1.98,3.46,5.2,5.036,10.884,5.036,4.456,0,7.404-.864,9.656-2.696,2.196-1.78,2.784-3.768,2.784-7.996V240.24463h-4.336v24.35193c0,2.344-.16,3.872-1.396,5.452-1.128,1.428-3.432,2.192-6.492,2.192-4.508,0-6.492-1.884-7.188-3.412a15.28026,15.28026,0,0,1-.644-5.044Zm16.088-4.844a2.763,2.763,0,0,0-5.516,0,2.74352,2.74352,0,0,0,2.784,2.7,2.6984,2.6984,0,0,0,2.732-2.7m-13.78,2.7a2.65033,2.65033,0,1,0-2.784-2.7,2.74352,2.74352,0,0,0,2.784,2.7m-54.84385,2.144-3.216,34.94391h4.236l2.04-24.85593c.16-1.988.376-6.116.428-6.624.108.612.752,3.26,1.824,6.672l7.292,24.80793h3.756l7.884-26.07993c.644-2.14,1.34-5.144,1.448-5.452,0,.204.108,3.72.268,5.912l2.144,25.61993h4.396l-3.164-34.94391h-6.488l-6.92,23.22794c-.804,2.752-1.284,5.4-1.34,5.656-.052-.308-.536-2.852-1.448-6.064l-6.704-22.81994Zm-65.57982,16.728H28.34646v18.352h518.2026Zm0-76.2358H28.34646v8.608h518.2026ZM28.35046,147.83288H229.60192v-18.352H28.35046ZM283.32577,48.64115h8.156v-18.352h-8.156Zm-13.3,16.308h34.6599v-8.608h-34.6599Zm-11.872,46.87987h58.88383V93.477H258.15384Zm87.15176,36.0039H546.55705v-18.352H345.3056ZM677.7447,215.2687l20.56394-85.80377h-17.992l-6.976,32.31191c-1.836,8.324-4.408,25.58393-4.652,28.27592,0,0-2.08-14.564-3.672-22.51994l-7.836-38.0679H638.45281l-7.588,34.39591c-2.568,11.748-4.04,23.86794-4.404,27.17193a259.99825,259.99825,0,0,0-4.532-28.03192l-7.344-33.53591h-18.116l20.31995,85.80377h19.46395l7.1-34.88391c2.324-11.26,3.792-22.03194,4.036-23.99194a205.84379,205.84379,0,0,0,4.04,24.23594l7.588,34.63991Zm30.03192,24.97593h-5.088v34.94391h4.552l-.216-20.27195c-.052-4.536-.48-9.528-.48-9.528s1.82,4.18,4.184,8.408l11.804,21.39194h4.604V240.24463h-4.336l.16,18.99995c.052,4.992.48,10.544.48,10.648a77.509,77.509,0,0,0-3.432-7.336Zm78.50379-24.97593,20.56394-85.80377h-17.996l-6.976,32.31191c-1.836,8.324-4.408,25.58393-4.652,28.27592,0,0-2.08-14.564-3.672-22.51994l-7.832-38.0679H746.98851l-7.592,34.39591c-2.568,11.748-4.036,23.86794-4.404,27.17193a260.50951,260.50951,0,0,0-4.528-28.03192l-7.344-33.53591h-18.116l20.31595,85.80377h19.46395l7.1-34.88391c2.324-11.26,3.792-22.03194,4.04-23.99194a204.67758,204.67758,0,0,0,4.036,24.23594l7.592,34.63991Zm92.45975-28.51992V129.46493h-17.38v54.46785a54.13684,54.13684,0,0,1-.244,7.588c-.736,6.244-5.512,9.916-12.976,9.916-5.632,0-9.672-2.08-11.628-5.876-.98-1.836-1.468-4.896-1.468-10.16V129.46493h-17.504v59.24384c0,8.2.856,11.628,3.672,16.032,4.772,7.468,14.32,11.384,27.29593,11.384,18.36,0,26.68393-9.3,28.88392-16.032,1.224-3.676,1.348-5.264,1.348-13.344" transform="translate(-28.34646 -30.28919)" style="fill: #3e3e3b"/>
</svg>
