<svg xmlns="http://www.w3.org/2000/svg" width="112.424" height="120" viewBox="0 0 112.424 120"><g fill="#FFF"><path d="M12.31 110.587c0 .745-.045 3 2.867 3 1.842 0 3-.876 3-2.21 0-1.4-.986-1.64-3-2.123-3.767-.94-5.823-2.057-5.823-4.793 0-2.604 1.863-4.9 6.26-4.9 1.644 0 3.59.372 4.77 1.857.898 1.138.898 2.407.898 2.935h-3.26c-.043-.545-.22-2.406-2.562-2.406-1.574 0-2.602.854-2.602 2.146 0 1.468 1.158 1.728 3.434 2.3 2.736.653 5.43 1.396 5.43 4.484 0 2.845-2.366 5.146-6.74 5.146-6.065 0-6.108-3.898-6.13-5.434h3.46zM30.605 115.492c-1.047.283-1.99.35-2.515.35-3.263 0-3.263-2.057-3.263-2.978v-6.062h-2.122v-2.144h2.122v-2.172l3.22-1.18v3.352h2.624v2.144h-2.624v4.99c.02 1.006.02 1.644 1.465 1.644.48 0 .702-.023 1.095-.067v2.122zM35.464 104.592v6.59c0 .963 0 2.43 1.726 2.43 2.082 0 2.082-1.557 2.082-3.438v-5.582H42.6v7.29c.043 2.384.065 2.67.065 2.954.022.307.045.504.087.81H39.6l-.107-1.466c-.327.48-1.16 1.75-3.262 1.75-1.488 0-2.71-.68-3.327-1.486-.72-.9-.72-2.432-.72-2.977v-6.875h3.28zM52.16 115.492c-1.047.283-1.99.35-2.512.35-3.263 0-3.263-2.057-3.263-2.978v-6.062H44.26v-2.144h2.125v-2.172l3.214-1.18v3.352h2.63v2.144H49.6v4.99c.027 1.006.027 1.644 1.47 1.644.48 0 .7-.023 1.092-.067v2.122zM60.888 115.492c-1.052.283-1.992.35-2.52.35-3.26 0-3.26-2.057-3.26-2.978v-6.062h-2.12v-2.144h2.12v-2.172l3.22-1.18v3.352h2.624v2.144h-2.624v4.99c.02 1.006.02 1.644 1.465 1.644.48 0 .7-.023 1.095-.067v2.122zM73.383 104.636c-.085.873-.153 1.62-.153 2.735v8.165c0 4.074-3.393 4.465-5.513 4.465-1.577 0-4.66-.197-4.86-3.543h3.108c.042.326.197 1.527 1.923 1.527.965 0 1.797-.46 2.018-1.442.13-.546.13-.938.152-2.627-1.03 1.358-2.188 1.51-2.976 1.51-3.174 0-4.663-2.758-4.663-5.427 0-2.8 1.554-5.473 4.728-5.473 2.014 0 2.758 1.093 3.086 1.576l.108-1.466 3.04.002zm-5.56 8.58c2.275 0 2.275-2.67 2.275-3.15 0-1.25-.24-3.374-2.21-3.374-1.226 0-2.23.94-2.23 3.308 0 .546 0 3.215 2.165 3.215zM82.467 115.645c-.108-.68-.108-1.182-.108-1.508-1.227 1.77-2.694 1.77-3.31 1.77-1.595 0-2.316-.458-2.757-.876-.657-.655-.963-1.552-.963-2.427 0-.88.306-2.496 2.346-3.437 1.356-.615 3.302-.615 4.376-.615 0-.722-.02-1.07-.152-1.464-.283-.812-1.14-.922-1.445-.922-.462 0-.94.2-1.225.616-.244.37-.244.722-.244.984h-3.172c.02-.595.088-1.773 1.246-2.606 1.008-.722 2.3-.897 3.35-.897.92 0 2.847.154 3.938 1.425.748.9.77 2.21.77 2.715l.022 4.442c0 .94.066 1.882.266 2.802h-2.94zm-3.984-3.415c0 .744.5 1.578 1.576 1.578.587 0 1.07-.287 1.376-.638.567-.698.614-1.555.614-2.735-2.078-.175-3.567.483-3.567 1.795zM88.004 107.307c0-.523-.088-2.123-.155-2.757h3.044l.063 2.123c.415-.944 1.14-2.146 3.767-2.014v2.143c-3.283-.307-3.48 2.014-3.48 3.395v5.447h-3.238l-.002-8.338zM103.505 115.492c-1.05.283-1.994.35-2.518.35-3.264 0-3.264-2.057-3.264-2.978v-6.062h-2.12v-2.144h2.12v-2.172l3.22-1.18v3.352h2.63v2.144h-2.63v4.99c.02 1.006.02 1.644 1.467 1.644.48 0 .702-.023 1.095-.067v2.122z"/></g><g fill="#FFF"><path d="M3.39 78.184v9.63c0 1.73.133 3.897 3.44 3.897.547 0 2.187-.022 3.062-1.378.328-.482.504-1.094.504-2.69v-9.458H13.7v9.875c0 4.704-3.743 6.214-6.94 6.214-1.574 0-4.46-.35-5.95-2.737C.043 90.332 0 89.11 0 87.64v-9.456h3.39zM16.324 84.884c0-.044 0-1.247-.064-2.014h3.106l.088 1.664c.31-.503 1.184-1.93 3.59-1.93 2.17 0 3.087 1.314 3.37 2.08.24.68.307 1.25.307 3.307v5.975h-3.305v-6.87c0-.46 0-.858-.174-1.208-.24-.48-.742-.94-1.576-.94-.697 0-1.334.33-1.684.854-.198.288-.394.834-.394 1.69v6.476h-3.263v-9.082zM29.643 82.89h3.24v11.075h-3.24V82.89zM37.926 82.913l2.497 7.505 2.538-7.505h3.13l-3.983 11.052H38.52l-4.052-11.052h3.458zM50.073 89.26c0 .72 0 2.955 2.254 2.955.81 0 1.62-.307 1.927-1.533h2.955c-.045.526-.154 1.467-1.052 2.406-.812.854-2.253 1.292-3.872 1.292-.942 0-2.74-.173-3.898-1.377-1.006-1.052-1.423-2.538-1.423-4.312 0-1.796.44-3.94 2.297-5.23.854-.57 1.904-.922 3.107-.922 1.577 0 3.456.614 4.465 2.67.743 1.513.703 3.134.657 4.052h-7.42zm4.115-2.035c0-.504-.043-2.475-1.926-2.475-1.422 0-2.014 1.184-2.08 2.475h4.006zM59.634 85.627c0-.523-.085-2.123-.15-2.757h3.045l.06 2.123c.422-.944 1.143-2.277 3.768-2.146v2.91c-3.28-.306-3.48 1.38-3.48 2.76v5.447h-3.24v-8.338h-.004zM70.405 90.77c.044.703.48 1.51 1.837 1.51 1.16 0 1.707-.654 1.707-1.313 0-.5-.264-.894-1.53-1.243l-2.015-.55c-.9-.264-2.8-.813-2.8-3.065 0-2.145 1.97-3.456 4.833-3.456 2.278 0 4.115 1.052 4.203 3.26h-2.954c-.088-1.225-1.07-1.312-1.578-1.312-.873 0-1.527.416-1.527 1.094 0 .744.546.897 1.508 1.162l1.993.547c2.014.55 2.956 1.574 2.956 3.084 0 1.905-1.64 3.808-5.076 3.808-1.425 0-2.78-.307-3.79-1.357-.72-.763-.785-1.64-.808-2.163h3.043v-.007zM79.062 82.89H82.3v11.075h-3.238V82.89zM91.675 93.812c-1.046.285-1.986.35-2.514.35-3.26 0-3.26-2.057-3.26-2.977v-6.062h-2.126v-2.145H85.9v-3.35l3.215-.59v3.94h2.63v2.143h-2.63v4.99c.024 1.008.024 1.644 1.467 1.644.483 0 .702-.022 1.093-.067v2.125zM100.324 93.965c-.112-.68-.112-1.182-.112-1.508-1.225 1.77-2.69 1.77-3.305 1.77-1.598 0-2.32-.458-2.758-.876-.654-.655-.964-1.553-.964-2.428 0-.877.31-2.496 2.344-3.437 1.355-.614 3.302-.614 4.375-.614 0-.723-.02-1.07-.152-1.464-.286-.812-1.14-.923-1.44-.923-.46 0-.945.2-1.228.617-.238.37-.238.722-.238.984H93.67c.02-.594.087-1.773 1.244-2.607 1.008-.72 2.3-.897 3.35-.897.92 0 2.845.153 3.942 1.424.74.9.766 2.21.766 2.715l.02 4.442c0 .94.066 1.88.265 2.8l-2.933.003zM96.34 90.55c0 .745.507 1.58 1.574 1.58.592 0 1.073-.288 1.378-.638.573-.7.613-1.555.613-2.736-2.08-.176-3.566.482-3.566 1.795zM112.356 93.812c-1.05.285-1.987.35-2.517.35-3.26 0-3.26-2.057-3.26-2.977v-6.062h-2.123v-2.145h2.122v-2.17l3.215-1.18v3.35h2.627v2.145h-2.627v4.99c.023 1.007.023 1.643 1.47 1.643.478 0 .7-.023 1.09-.068v2.124z"/><circle cx="96.231" cy="79.717" r="1.744"/><circle cx="100.542" cy="79.717" r="1.745"/><path d="M82.5 79.714c0 .966-.778 1.745-1.742 1.745-.967 0-1.745-.78-1.745-1.746 0-.96.778-1.74 1.745-1.74.964 0 1.74.78 1.74 1.74zM33.006 79.714c0 .966-.78 1.745-1.743 1.745-.963 0-1.745-.78-1.745-1.746 0-.96.782-1.74 1.745-1.74.964 0 1.743.78 1.743 1.74z"/></g><g fill="#FFF"><circle cx="56.174" cy="30.344" r="1.642"/><path d="M60.312 27.79c0-.905-.736-1.643-1.642-1.643s-1.64.737-1.64 1.644c0 .905.734 1.64 1.64 1.64s1.642-.735 1.642-1.64zM60.312 32.9c0-.905-.736-1.643-1.642-1.643s-1.64.737-1.64 1.644c0 .905.734 1.64 1.64 1.64s1.642-.734 1.642-1.64z"/><circle cx="61.499" cy="30.263" r="1.642"/><path d="M64.586 26.045c-.903 0-1.642.736-1.642 1.642 0 .905.738 1.64 1.642 1.64.906 0 1.644-.735 1.644-1.64 0-.906-.738-1.642-1.644-1.642z"/><circle cx="64.562" cy="32.957" r="1.642"/><path d="M61.388 37.15c.906 0 1.645-.735 1.645-1.64 0-.906-.737-1.644-1.645-1.644-.904 0-1.64.737-1.64 1.644 0 .905.735 1.64 1.64 1.64zM60.47 38.69c0-.907-.736-1.644-1.644-1.644-.903 0-1.64.737-1.64 1.643 0 .904.735 1.64 1.64 1.64.905 0 1.644-.736 1.644-1.64z"/><circle cx="56.271" cy="42.173" r="1.642"/><circle cx="68.056" cy="30.269" r="1.642"/><circle cx="67.884" cy="35.753" r="1.642"/><path d="M71.722 31.64c-.902 0-1.64.737-1.64 1.644 0 .903.735 1.64 1.64 1.64.905 0 1.645-.737 1.645-1.64-.002-.907-.74-1.644-1.645-1.644zM72.92 38.84c0-.905-.735-1.643-1.644-1.643-.9 0-1.64.738-1.64 1.644 0 .904.737 1.642 1.64 1.642.91 0 1.645-.738 1.645-1.64z"/><circle cx="67.304" cy="41.301" r="1.642"/><path d="M61.644 43.6c.905 0 1.644-.735 1.644-1.64 0-.906-.737-1.643-1.644-1.643-.903 0-1.642.737-1.642 1.643 0 .905.737 1.64 1.642 1.64zM59.07 47.44c.907 0 1.646-.735 1.646-1.638 0-.906-.736-1.644-1.645-1.644-.9 0-1.64.737-1.64 1.644.003.903.74 1.64 1.64 1.64z"/><circle cx="56.252" cy="49.875" r="1.642"/><path d="M65.87 38.312c0-.906-.736-1.644-1.643-1.644-.908 0-1.642.737-1.642 1.644 0 .904.733 1.64 1.642 1.64.907 0 1.644-.735 1.644-1.64zM75.567 34.642c-.902 0-1.64.737-1.64 1.644 0 .904.736 1.64 1.64 1.64.906 0 1.644-.736 1.644-1.64 0-.907-.736-1.644-1.643-1.644z"/><circle cx="74.957" cy="42.197" r="1.642"/><circle cx="78.997" cy="45.728" r="1.642"/><path d="M74.017 46.397c-.902 0-1.64.738-1.64 1.644 0 .904.735 1.64 1.64 1.64.906 0 1.645-.736 1.645-1.64-.002-.905-.74-1.643-1.645-1.643z"/><circle cx="70.583" cy="44.667" r="1.642"/><path d="M68.14 50.677c.905 0 1.644-.735 1.644-1.64 0-.905-.737-1.642-1.644-1.642-.904 0-1.64.737-1.64 1.642 0 .905.735 1.64 1.64 1.64zM62.18 51.294c.904 0 1.644-.735 1.644-1.64 0-.906-.738-1.643-1.645-1.643-.903 0-1.642.738-1.642 1.644 0 .905.736 1.64 1.64 1.64zM66.39 45.39c0-.907-.738-1.645-1.644-1.645-.906 0-1.642.737-1.642 1.644 0 .902.735 1.638 1.642 1.638.905 0 1.644-.736 1.644-1.64z"/><circle cx="77.841" cy="51.881" r="1.642"/><circle cx="71.608" cy="53.066" r="1.641"/><circle cx="68.919" cy="57.846" r="1.642"/><path d="M65.412 52.097c-.903 0-1.642.737-1.642 1.643 0 .905.737 1.64 1.642 1.64.905 0 1.644-.735 1.644-1.64 0-.906-.74-1.643-1.644-1.643zM62.563 57.027c-.903 0-1.642.737-1.642 1.643 0 .905.738 1.64 1.643 1.64s1.644-.735 1.644-1.64c0-.905-.737-1.643-1.644-1.643z"/><circle cx="59.224" cy="54.149" r="1.642"/><circle cx="56.277" cy="58.986" r="1.641"/><path d="M53.127 52.507c-.903 0-1.64.737-1.64 1.644 0 .905.736 1.64 1.64 1.64.905 0 1.643-.734 1.643-1.64 0-.905-.738-1.643-1.643-1.643zM49.828 57.045c-.903 0-1.64.737-1.64 1.644 0 .903.736 1.64 1.64 1.64.906 0 1.644-.737 1.644-1.64 0-.908-.738-1.645-1.644-1.645z"/><circle cx="43.643" cy="57.841" r="1.642"/><circle cx="79.679" cy="39.5" r="1.642"/><circle cx="83.784" cy="42.884" r="1.642"/><circle cx="84.612" cy="36.648" r="1.642"/><circle cx="80.054" cy="33.391" r="1.642"/><circle cx="84.89" cy="30.285" r="1.642"/><circle cx="80.051" cy="27.318" r="1.642"/><circle cx="84.595" cy="23.944" r="1.642"/><path d="M78.006 21.112c0 .905.736 1.64 1.64 1.64.906 0 1.644-.735 1.644-1.64 0-.905-.735-1.642-1.644-1.642-.904 0-1.64.737-1.64 1.642zM83.78 19.27c.906 0 1.646-.735 1.646-1.64 0-.905-.737-1.64-1.646-1.64-.9 0-1.64.735-1.64 1.64.002.906.74 1.64 1.64 1.64z"/><circle cx="78.987" cy="14.947" r="1.642"/><path d="M77.827 10.443c.906 0 1.645-.736 1.645-1.64 0-.906-.738-1.642-1.645-1.642-.903 0-1.64.737-1.64 1.643 0 .905.737 1.64 1.64 1.64z"/><circle cx="74.049" cy="12.601" r="1.641"/><circle cx="70.549" cy="15.985" r="1.642"/><path d="M65.65 19.33c0 .904.737 1.64 1.642 1.64.906 0 1.645-.736 1.645-1.64 0-.907-.737-1.644-1.645-1.644-.902 0-1.64.737-1.64 1.643z"/><circle cx="64.771" cy="15.261" r="1.642"/><circle cx="62.16" cy="11.019" r="1.641"/><circle cx="59.095" cy="14.815" r="1.642"/><circle cx="53.254" cy="14.852" r="1.641"/><circle cx="50.784" cy="18.705" r="1.642"/><path d="M51.897 22.005c0 .904.737 1.64 1.64 1.64.907 0 1.645-.736 1.645-1.64 0-.906-.737-1.644-1.644-1.644-.903 0-1.64.74-1.64 1.645z"/><circle cx="48.213" cy="22.329" r="1.641"/><circle cx="44.555" cy="24.905" r="1.642"/><path d="M40.708 29.09c.906 0 1.644-.736 1.644-1.64 0-.907-.737-1.643-1.644-1.643-.902 0-1.64.736-1.64 1.642 0 .904.738 1.64 1.64 1.64z"/><circle cx="41.126" cy="21.796" r="1.642"/><circle cx="36.849" cy="24.348" r="1.641"/><path d="M32.35 28.927c.906 0 1.644-.735 1.644-1.64 0-.906-.737-1.644-1.644-1.644-.903 0-1.64.737-1.64 1.644 0 .905.736 1.64 1.64 1.64zM27.81 25.57c.906 0 1.644-.735 1.644-1.638 0-.906-.737-1.643-1.643-1.643-.905 0-1.64.736-1.64 1.642 0 .903.734 1.64 1.64 1.64z"/><circle cx="32.775" cy="21.125" r="1.642"/><path d="M28.66 15.966c-.905 0-1.64.737-1.64 1.643 0 .902.734 1.638 1.64 1.638.906 0 1.643-.736 1.643-1.64 0-.905-.738-1.642-1.643-1.642zM33.49 16.595c.905 0 1.643-.735 1.643-1.64 0-.906-.737-1.644-1.644-1.644-.904 0-1.642.738-1.642 1.645 0 .904.738 1.64 1.64 1.64zM37.47 16.76c-.906 0-1.642.738-1.642 1.646 0 .903.735 1.64 1.64 1.64.907 0 1.643-.737 1.643-1.64 0-.908-.735-1.645-1.64-1.645z"/><circle cx="41.905" cy="15.97" r="1.641"/><circle cx="45.116" cy="19.334" r="1.642"/><circle cx="36.642" cy="30.261" r="1.642"/><path d="M56.28 16.87c-.903 0-1.64.736-1.64 1.642 0 .905.736 1.64 1.64 1.64.907 0 1.643-.735 1.643-1.64 0-.906-.736-1.642-1.643-1.642z"/><circle cx="68.129" cy="11.573" r="1.642"/><circle cx="71.612" cy="7.533" r="1.641"/><path d="M65.43 8.526c.904 0 1.64-.736 1.64-1.64 0-.905-.734-1.642-1.64-1.642-.905 0-1.643.737-1.643 1.643 0 .904.735 1.64 1.642 1.64zM68.93 4.416c.906 0 1.645-.735 1.645-1.64 0-.905-.737-1.642-1.644-1.642-.903 0-1.64.737-1.64 1.642 0 .905.736 1.64 1.64 1.64z"/><circle cx="62.578" cy="1.971" r="1.641"/><path d="M56.258 3.284c.906 0 1.644-.736 1.644-1.64C57.9.737 57.164 0 56.258 0c-.904 0-1.64.737-1.64 1.644 0 .904.736 1.64 1.64 1.64z"/><circle cx="49.818" cy="1.954" r="1.642"/><path d="M43.637 4.433c.906 0 1.644-.736 1.644-1.64 0-.906-.736-1.644-1.643-1.644-.903 0-1.64.736-1.64 1.643 0 .904.736 1.64 1.64 1.64zM53.082 8.138c.906 0 1.644-.736 1.644-1.64 0-.906-.737-1.642-1.644-1.642-.904 0-1.64.736-1.64 1.642 0 .904.736 1.64 1.64 1.64z"/><circle cx="46.998" cy="6.902" r="1.642"/><path d="M44.303 9.952c-.903 0-1.64.738-1.64 1.642 0 .905.736 1.64 1.64 1.64.906 0 1.644-.735 1.644-1.64 0-.905-.738-1.642-1.644-1.642zM38.37 14.256c.905 0 1.642-.736 1.642-1.64 0-.907-.736-1.643-1.643-1.643-.904 0-1.642.736-1.642 1.642 0 .905.738 1.64 1.64 1.64zM34.898 10.418c.906 0 1.644-.737 1.644-1.64 0-.907-.737-1.645-1.644-1.645-.902 0-1.64.738-1.64 1.644 0 .904.738 1.64 1.64 1.64zM40.848 9.195c.905 0 1.643-.736 1.643-1.64 0-.905-.736-1.643-1.642-1.643-.903 0-1.64.737-1.64 1.644 0 .903.736 1.64 1.64 1.64z"/><circle cx="47.673" cy="15.242" r="1.641"/><circle cx="50.215" cy="10.996" r="1.642"/><circle cx="59.215" cy="6.496" r="1.641"/><circle cx="56.267" cy="10.745" r="1.642"/><path d="M65.813 22.31c0-.906-.738-1.643-1.645-1.643s-1.64.737-1.64 1.643c0 .904.733 1.64 1.64 1.64s1.645-.736 1.645-1.64zM61.424 23.497c-.905 0-1.64.737-1.64 1.644 0 .904.734 1.64 1.64 1.64.906 0 1.644-.736 1.644-1.64-.003-.906-.74-1.643-1.644-1.643z"/><circle cx="58.851" cy="21.934" r="1.641"/><circle cx="56.254" cy="25.03" r="1.641"/><path d="M52.035 27.79c0 .905.736 1.64 1.64 1.64.905 0 1.643-.735 1.643-1.64 0-.905-.737-1.643-1.643-1.643-.904 0-1.64.737-1.64 1.644zM51.05 23.528c-.904 0-1.64.737-1.64 1.643 0 .904.735 1.64 1.64 1.64.905 0 1.642-.735 1.642-1.64 0-.905-.738-1.642-1.642-1.642zM50.9 31.936c.905 0 1.643-.737 1.643-1.64 0-.906-.737-1.643-1.644-1.643-.905 0-1.64.737-1.64 1.643 0 .903.735 1.64 1.64 1.64z"/><circle cx="47.831" cy="27.733" r="1.641"/><circle cx="47.846" cy="33" r="1.641"/><path d="M44.374 31.897c.906 0 1.644-.736 1.644-1.64 0-.907-.737-1.645-1.644-1.645-.903 0-1.64.738-1.64 1.644 0 .906.737 1.64 1.64 1.64z"/><circle cx="44.638" cy="35.784" r="1.641"/><path d="M40.71 34.913c.907 0 1.645-.736 1.645-1.64 0-.907-.737-1.644-1.644-1.644-.903 0-1.64.736-1.64 1.642 0 .905.737 1.64 1.64 1.64zM41.167 40.543c.906 0 1.644-.736 1.644-1.64 0-.906-.736-1.642-1.643-1.642-.903 0-1.64.737-1.64 1.643 0 .905.737 1.64 1.64 1.64z"/><circle cx="37.474" cy="42.249" r="1.642"/><path d="M34.39 39.535c0-.906-.736-1.644-1.642-1.644-.906 0-1.64.738-1.64 1.645 0 .905.734 1.64 1.64 1.64.906 0 1.642-.735 1.642-1.64zM29.466 36.686c0-.906-.738-1.644-1.644-1.644-.906 0-1.64.737-1.64 1.644 0 .904.733 1.64 1.64 1.64.906 0 1.644-.736 1.644-1.64zM32.35 35.057c.906 0 1.644-.736 1.644-1.64 0-.906-.737-1.644-1.644-1.644-.903 0-1.64.737-1.64 1.644 0 .904.736 1.64 1.64 1.64zM27.53 31.905c.907 0 1.644-.736 1.644-1.64 0-.905-.736-1.642-1.643-1.642-.904 0-1.64.737-1.64 1.643.002.903.736 1.64 1.64 1.64zM36.854 37.907c.906 0 1.644-.736 1.644-1.64 0-.907-.737-1.643-1.644-1.643-.904 0-1.64.736-1.64 1.642 0 .905.736 1.64 1.64 1.64z"/><circle cx="28.643" cy="42.88" r="1.642"/><path d="M35.08 45.74c0-.906-.738-1.644-1.645-1.644-.904 0-1.64.737-1.64 1.644 0 .904.735 1.64 1.64 1.64.907 0 1.645-.735 1.645-1.64zM55.317 32.9c0-.905-.737-1.643-1.643-1.643-.903 0-1.64.737-1.64 1.644 0 .905.736 1.64 1.64 1.64.906.002 1.643-.734 1.643-1.64z"/><circle cx="56.251" cy="35.585" r="1.642"/><path d="M55.167 38.69c0-.907-.737-1.644-1.644-1.644-.903 0-1.64.737-1.64 1.643 0 .904.736 1.64 1.64 1.64.907 0 1.644-.736 1.644-1.64z"/><circle cx="50.8" cy="41.959" r="1.642"/><circle cx="53.283" cy="45.818" r="1.642"/><circle cx="50.24" cy="49.641" r="1.642"/><path d="M44.263 50.66c.906 0 1.643-.735 1.643-1.64 0-.906-.736-1.643-1.643-1.643-.904 0-1.64.737-1.64 1.643 0 .905.735 1.64 1.64 1.64zM41.926 46.296c.906 0 1.643-.736 1.643-1.64 0-.906-.737-1.642-1.644-1.642-.903 0-1.642.735-1.642 1.642 0 .905.738 1.64 1.642 1.64z"/><circle cx="47.667" cy="45.371" r="1.642"/><path d="M46.77 41.287c0-.906-.737-1.644-1.642-1.644-.905 0-1.64.737-1.64 1.644 0 .905.734 1.64 1.64 1.64.904 0 1.642-.736 1.642-1.64zM48.18 39.947c.906 0 1.643-.736 1.643-1.64 0-.906-.736-1.642-1.643-1.642-.904 0-1.64.736-1.64 1.642 0 .904.735 1.64 1.64 1.64z"/><circle cx="51.047" cy="35.482" r="1.641"/><path d="M39.997 48.042c0-.906-.736-1.642-1.643-1.642-.903 0-1.64.736-1.64 1.642 0 .905.736 1.64 1.64 1.64.907 0 1.643-.735 1.643-1.64z"/><circle cx="40.8" cy="53.068" r="1.641"/><path d="M34.854 50.232c-.903 0-1.64.737-1.64 1.643 0 .903.736 1.64 1.64 1.64.906 0 1.644-.736 1.644-1.64 0-.906-.737-1.643-1.644-1.643zM46.98 52.1c-.905 0-1.642.737-1.642 1.644 0 .903.736 1.64 1.64 1.64.907 0 1.643-.737 1.643-1.64 0-.907-.735-1.644-1.64-1.644z"/><circle cx="61.647" cy="18.721" r="1.642"/><path d="M73.27 18.445c0 .905.737 1.64 1.642 1.64.906 0 1.645-.735 1.645-1.64 0-.906-.738-1.642-1.645-1.642-.905 0-1.64.737-1.64 1.642z"/><circle cx="71.278" cy="21.809" r="1.642"/><path d="M75.528 25.983c.906 0 1.645-.736 1.645-1.64 0-.907-.736-1.645-1.645-1.645-.902 0-1.64.738-1.64 1.644.004.905.738 1.64 1.64 1.64z"/><circle cx="75.787" cy="30.259" r="1.642"/><circle cx="71.665" cy="27.423" r="1.641"/><path d="M67.862 26.532c.906 0 1.645-.736 1.645-1.64 0-.906-.736-1.643-1.645-1.643-.902 0-1.64.736-1.64 1.64.002.906.738 1.642 1.64 1.642z"/></g></svg>